<svg xmlns="http://www.w3.org/2000/svg" version="1.1" xmlns:xlink="http://www.w3.org/1999/xlink" xmlns:svgjs="http://svgjs.dev/svgjs" width="100%" height="100%" viewBox="0 0 1000 600"><rect width="1000" height="600" x="0" y="0" fill="#2b3252"/><g><rect width="333.3333333333333" height="333.3333333333333" rx="13.333333333333334" ry="13.333333333333334" y="167.76638570149987" fill="#fad744" transform="matrix(0.8588458113164399,0,0,0.8588458113164399,0,12.773564517578805)" x="145.54417419433594"/><path d="M374.3874284944968 285.5537861044431L364.3907544955325 296.56995093616285Q348.277135500035 287.9892364271369 334.62728601703 282.0705257591949L334.62728601703 282.0705257591949Q323.80935551390166 277.3978594423986 311.4621887616398 283.0900165919504Q299.1433411991769 288.8104929313011 290.562626690151 301.2426172529591Q282.01023137092375 313.6747415746172 277.30924586432866 328.3724010801765Q272.6365795475324 343.041741395937 277.026053966341 358.135869558679Q281.3872091953509 373.229997721421 295.263612196746 382.405415216221L295.263612196746 382.405415216221Q302.59828235462624 387.30463505140744 310.6692514472744 388.09757236577286Q318.71190135012387 388.9188288699371 326.6695936835769 385.86035637167043Q334.62728601703 382.80188387340377 340.74423101356336 379.148708389363Q346.86117601009676 375.4672137155235 354.1958461679769 369.973290894563L354.1958461679769 369.973290894563L378.86186048270173 388.09757236577286Q368.04392997957325 397.2729898605729 355.52684808851893 402.79523187133213Q342.9814470076659 408.28915469229264 328.7935329184843 409.30864552504823Q314.6339380191016 410.32813635780377 302.59828235462624 402.99346619992355L302.59828235462624 402.99346619992355Q282.40670002810646 391.1560448640396 263.8576307099151 374.24948855417654L263.8576307099151 374.24948855417654Q255.50346971927928 366.49003054931484 250.91576097187925 357.22965548511854Q246.32805222447925 347.9409612311234 245.7050300489064 338.65226697712836Q245.11032706313233 329.391891912932 246.9510744000521 319.5934522425592Q248.76350254717306 309.82333176198506 253.5777648129632 301.2426172529591Q258.3637078889546 292.69022193373195 264.36737612629287 284.9307639288702Q270.3993635534299 277.1996251138072 278.1305023684929 271.79065986224305Q285.8899603733546 266.38169461067884 293.8476527068077 262.8134766960344Q301.7770258504621 259.2452587813899 310.244463600293 259.4434931099813Q318.71190135012387 259.6417274385726 326.24480583659545 262.70019993683934L326.24480583659545 262.70019993683934Q356.8295308192621 276.7748372668258 374.3874284944968 285.5537861044431L374.3874284944968 285.5537861044431Z " fill="#2b3252" transform="matrix(0.8588458113164399,0,0,0.8588458113164399,0,12.773564517578805)"/><path d="M562.2108358568023 259.6354572268009L581.5718965205225 263.9809397313248L581.5718965205225 374.10235032863966L562.2108358568023 369.7568678241158L562.2108358568023 259.6354572268009ZM615.3246789442746 338.7791707621636L615.3246789442746 338.7791707621636L650.4972724833661 314.7714555391506Q639.3323941672876 307.65088767282685 631.5234330329205 309.50094458069344Q623.6929596089269 311.37251377818643 619.519575421414 319.18147491255354Q615.3246789442746 327.011948336547 615.3246789442746 338.7791707621636ZM630.9641135026352 344.8241241471695L618.8957190222496 353.64416289397536Q623.2196892371471 358.91467385243254 628.6407862229888 360.16238665076116Q634.0618832088304 361.38858715946344 640.0422997249573 358.6780386665426Q646.0012039514579 355.96749017362174 650.0240021115864 353.25694168070095Q654.0468002717148 350.54639318778015 659.4678972575565 346.07183694549815L659.4678972575565 346.07183694549815L662.5656669637517 349.16960665169336Q665.5128506425625 352.4179623852731 668.4600343213732 355.6663181188528L668.4600343213732 355.6663181188528L671.5578040275684 358.764087825048Q658.0695984318434 368.681253342798 648.7762893132577 372.0156582348831Q639.4829801946721 375.3285508373419 630.3617693930972 371.9296090763777L630.3617693930972 371.9296090763777Q617.0241498247567 366.809684145305 605.2569273991401 353.9668472383707L605.2569273991401 353.9668472383707Q598.2869455602008 346.22242297288267 597.2113310788832 335.6168641870893Q596.114204307939 324.98979311166954 599.9218795718039 315.8685823100947Q603.7080425460425 306.72585921889356 611.6891019974205 300.2936846206132Q619.6701614487985 293.8615100223328 629.1140565947686 293.8615100223328L629.1140565947686 293.8615100223328Q635.3095960071591 293.8615100223328 647.46403964605 301.8425694737108Q659.618483284941 309.82362892508877 667.6855918948244 317.4174671631923L667.6855918948244 317.4174671631923Q667.53500586744 317.86922524534583 655.3590499389226 326.92589917804156Q643.2046063000316 336.0040854003637 630.9641135026352 344.8241241471695L630.9641135026352 344.8241241471695ZM691.9944791726064 315.2447259109304L691.8438931452218 315.2447259109304L683.4756124805695 301.15417620566745Q694.3178064522527 298.3575785542412 707.5693768620879 295.8836652472103Q720.7994349822967 293.4097519401794 724.2198890328872 293.5603379675639Q727.6188307938514 293.71092399494836 737.8371683663704 303.6926263815774Q748.0770182285156 313.6958410578328 751.6265460168644 318.96635201629L751.6265460168644 318.96635201629Q752.874258815193 320.8164089241566 752.874258815193 331.4219677099499Q752.874258815193 342.02752649574325 752.4870376019186 355.6663181188528Q752.0998163886442 369.3051097419623 752.2504024160286 374.10235032863966L752.2504024160286 374.10235032863966L733.039927779693 369.6062817967313L733.1905138070775 361.71127150385877Q720.6488489549121 374.2529363560241 712.7538386620396 374.2529363560241L712.7538386620396 374.2529363560241Q705.3105864513205 374.10235032863966 693.8660483700993 360.16238665076116Q682.3999979992517 346.22242297288267 682.3999979992517 340.17746958787666L682.3999979992517 340.17746958787666Q682.3999979992517 335.3802290011994 688.8967094664112 331.3574308410708Q695.414933223197 327.313120391316 704.7727792106616 325.075842270175Q714.1521374877527 322.83856414903397 721.4232913814609 321.59085135070535Q728.7159575647955 320.34313855237673 733.8143702062418 319.8913804702233L733.8143702062418 319.8913804702233L733.9649562336264 315.6964839930839Q734.1370545506371 308.27474407199117 726.0699459407538 307.65088767282685L726.0699459407538 307.65088767282685Q718.6482060196611 307.177617301047 694.7910768240325 314.3196974569971L694.7910768240325 314.3196974569971L694.6404907966481 314.3196974569971L694.4683924796373 314.47028348438164L694.3178064522527 314.47028348438164L694.1672204248682 314.47028348438164L694.0166343974838 314.6208695117661L693.8660483700993 314.6208695117661L693.6939500530884 314.6208695117661L693.5433640257039 314.7714555391506L693.3927779983195 314.7714555391506L693.242191970935 314.7714555391506L693.0916059435505 314.9220415665351L692.9195076265396 314.9220415665351L692.7689215991551 314.9220415665351L692.6183355717707 314.9220415665351L692.4677495443862 315.09413988354595L692.3171635170016 315.09413988354595L692.1450651999909 315.09413988354595L691.9944791726064 315.2447259109304ZM699.5883174107099 354.11743326575515L699.5883174107099 354.11743326575515Q700.9866162364231 356.2901745180171 704.8588283691671 356.91403091718144Q708.731040501911 357.5163750267194 716.5400016362781 354.80582653379855Q724.3704750602717 352.09527804087776 733.5131981514729 345.2973945189493L733.5131981514729 345.2973945189493L733.6637841788573 331.65860289583986Q692.7689215991551 343.5764113488409 699.5883174107099 354.11743326575515ZM771.4608770523643 295.56098090281495L790.8219377160844 299.90646340733883L790.8219377160844 311.37251377818643Q802.1158897699212 293.5603379675639 810.0324123524201 293.5603379675639L810.0324123524201 293.5603379675639Q813.9046244851642 293.5603379675639 823.0258352867389 297.49708696918697Q832.16855837794 301.45534826043644 838.3640977903306 305.62873244794946L838.3640977903306 305.62873244794946L827.6724898460317 321.1175809789255Q818.0780086726771 313.9970131126018 811.0219776752325 313.3086198445584Q803.9874589674141 312.59871428688865 799.7925624902748 316.0837052063583Q795.6191783027617 319.5686961258279 790.8219377160844 327.313120391316L790.8219377160844 327.313120391316L790.8219377160844 374.10235032863966L771.4608770523643 369.7568678241158L771.4608770523643 295.56098090281495ZM859.4246293345328 286.1170857568448L859.4246293345328 286.1170857568448Q851.5296190416602 282.3954596514852 847.6574069089162 274.823133703008L847.6574069089162 274.823133703008Q847.9800912533116 272.32770810635077 852.3040614682089 268.45549597360673Q856.6495439727329 264.58328384086275 859.2740433071483 263.9809397313248L859.2740433071483 263.9809397313248Q867.1690536000209 267.5304675196735 870.8906797053804 274.97371973039253L870.8906797053804 274.97371973039253Q868.266180370965 281.62101722493645 859.4246293345328 286.1170857568448ZM849.3568777893983 295.56098090281495L868.7179384531184 299.90646340733883L868.7179384531184 374.10235032863966L849.3568777893983 369.7568678241158L849.3568777893983 295.56098090281495ZM900.3194919142351 306.40317487449823L888.8534415433875 306.40317487449823L884.2067869840945 295.56098090281495L900.3194919142351 295.56098090281495L900.3194919142351 282.0942875967163Q900.3194919142351 277.44763303742343 906.4504944577463 271.1660444665276Q912.5599847116314 264.9059681852581 920.6916301903938 261.42097726578845Q928.8232756691563 257.9359863463188 933.469930228449 260.56048568073425L933.469930228449 260.56048568073425Q942.7632393470348 265.6804106118069 950.6582496399074 272.8009784781306L950.6582496399074 272.8009784781306L947.2593078789431 276.97436266564364Q939.3642975860706 272.65039245074615 934.0077374691081 272.4137572648562Q928.6726896417717 272.1771220789663 925.3382847496867 276.04933421171035Q922.0038798576014 279.9215463444543 920.6055810318884 284.8048360896371Q919.2287944958017 289.68812583481986 919.0566961787907 295.56098090281495L919.0566961787907 295.56098090281495L934.8682290541623 295.56098090281495L939.514883613455 306.40317487449823L919.0566961787907 306.40317487449823L919.8311386053396 374.10235032863966L900.4700779416195 369.7568678241158Q900.3194919142351 342.35021084013863 900.3194919142351 306.40317487449823L900.3194919142351 306.40317487449823ZM999.448122512482 340.4786416426457L999.448122512482 295.56098090281495L1018.8091831762022 299.90646340733883L1018.8091831762022 379.200762970086Q1018.8091831762022 388.3434860612871 1010.9141728833297 396.2384963541597Q1003.0191625904571 404.15501893665856 993.4892182859816 407.4679115391173Q983.9592739815059 410.8023164312025 978.6887630230488 408.478989151556L978.6887630230488 408.478989151556Q976.6881200877978 407.55396069762276 972.5792727691638 405.2306334179764Q968.4704254505299 402.9073061383299 962.3609351966448 399.2717291914758Q956.2299326531335 395.6361522446217 953.1321629469381 393.7645830471288L953.1321629469381 393.7645830471288L957.176473396693 387.71962966212277Q966.4697825152788 393.14072664796447 969.567552221474 394.689611501062L969.567552221474 394.689611501062Q980.8615042753107 400.2828068039145 990.1548133938963 394.1518042604032Q999.448122512482 388.04231400651815 999.448122512482 370.0795521685111L999.448122512482 370.0795521685111L999.448122512482 364.33577083827413Q988.4553425134144 374.72620672780397 980.0870618487619 374.10235032863966L980.0870618487619 374.10235032863966Q975.1392352347001 373.7796659842443 964.0604060771269 362.72234911629744Q952.9815769195537 351.64351995872426 952.2071344930049 347.1474514268159L952.2071344930049 347.1474514268159Q951.2821060390717 340.9519120144255 951.2821060390717 295.25980884804596L951.2821060390717 295.25980884804596L970.4925806754073 299.60529135256985Q969.567552221474 353.1924048118219 971.5681951567251 356.1395884906326L971.5681951567251 356.1395884906326Q976.214849716018 361.71127150385877 984.6691795391756 356.526809703907Q993.1019970727071 351.3208356143289 999.448122512482 340.4786416426457L999.448122512482 340.4786416426457Z " fill="#fad744" transform="matrix(0.8588458113164399,0,0,0.8588458113164399,0,12.773564517578805)"/></g></svg>